<svg version="1.0" xmlns="http://www.w3.org/2000/svg"
 width="398.000000pt" height="395.000000pt" viewBox="0 0 398.000000 395.000000"
 preserveAspectRatio="xMidYMid meet">

<g transform="translate(0.000000,395.000000) scale(0.100000,-0.100000)"
fill="#000000" stroke="none">
<path d="M2110 3480 c-153 -15 -383 -86 -553 -171 -147 -74 -287 -185 -352
-281 -42 -61 -28 -53 22 14 114 150 364 292 653 371 200 55 386 61 522 18 74
-24 156 -89 178 -141 57 -138 -117 -315 -396 -403 -66 -21 -357 -88 -455 -104
-25 -5 -25 -4 -37 89 -9 64 -18 97 -29 106 -23 17 -31 15 -43 -8 -9 -18 -6
-66 15 -192 3 -22 0 -27 -23 -33 -57 -14 -210 -94 -264 -138 -99 -81 -168
-232 -154 -334 14 -104 86 -202 185 -253 65 -33 187 -60 284 -64 48 -2 89 -5
91 -7 2 -2 48 -287 101 -634 132 -862 134 -859 25 42 -38 320 -70 588 -70 596
0 10 17 17 53 21 28 4 54 6 57 5 3 -2 17 -34 32 -71 40 -105 100 -198 185
-288 93 -99 169 -154 294 -214 111 -54 212 -81 329 -89 91 -6 94 -7 -89 23
-298 50 -589 290 -696 575 -14 36 -25 70 -25 74 0 5 17 15 38 22 126 40 323
162 437 270 96 91 137 167 143 265 6 90 -8 133 -58 178 -66 59 -164 62 -276 6
-201 -99 -352 -395 -328 -641 l6 -66 -53 -11 c-30 -5 -55 -9 -56 -9 0 1 -19
151 -42 332 -23 182 -44 346 -47 366 l-5 37 113 26 c317 74 379 90 448 119
214 88 350 220 350 340 0 114 -101 211 -255 245 -73 16 -170 21 -255 12z
m-435 -615 c18 -78 15 -105 -8 -105 -17 0 -27 50 -27 133 0 77 15 65 35 -28z
m793 -152 c53 -39 67 -70 67 -141 -1 -95 -35 -164 -127 -256 -107 -106 -331
-244 -439 -271 -31 -8 -39 10 -39 93 0 194 118 431 267 533 98 68 212 86 271
42z m-768 -38 c0 -65 -15 -72 -30 -14 -13 46 -8 69 15 69 12 0 15 -12 15 -55z
m-27 -157 c15 -106 39 -265 52 -352 13 -88 22 -163 19 -168 -8 -12 -99 -9
-189 7 -103 18 -212 72 -260 128 -117 137 -62 352 124 480 49 34 187 97 211
97 13 0 21 -38 43 -192z"/>
<path d="M2958 1333 c7 -3 16 -2 19 1 4 3 -2 6 -13 5 -11 0 -14 -3 -6 -6z"/>
<path d="M2878 1323 c12 -2 30 -2 40 0 9 3 -1 5 -23 4 -22 0 -30 -2 -17 -4z"/>
<path d="M1962 625 c0 -16 2 -22 5 -12 2 9 2 23 0 30 -3 6 -5 -1 -5 -18z"/>
</g>
</svg>
